<svg width="15" height="18" viewBox="0 0 15 18" fill="none" xmlns="http://www.w3.org/2000/svg">
                  <g clip-path="url(#clip0_2_86)">
                    <path
                      d="M7.09765 1.90234C3.17856 1.90234 0 5.08032 0 8.99999C0 12.136 2.03348 14.7964 4.8542 15.7351C5.20849 15.8007 5.32324 15.5807 5.32324 15.3938V14.0724C3.34891 14.5019 2.93784 13.2349 2.93784 13.2349C2.61489 12.4146 2.14941 12.1963 2.14941 12.1963C1.50529 11.7557 2.1985 11.7651 2.1985 11.7651C2.91122 11.8148 3.28621 12.4968 3.28621 12.4968C3.91909 13.5815 4.94647 13.268 5.35163 13.0865C5.41492 12.6281 5.59886 12.3146 5.80233 12.1377C4.22606 11.9573 2.56876 11.3487 2.56876 8.62973C2.56876 7.85431 2.84616 7.22144 3.29982 6.72461C3.22647 6.54539 2.98338 5.8232 3.36902 4.84609C3.36902 4.84609 3.96522 4.65564 5.32146 5.5736C5.90041 5.41602 6.49764 5.33567 7.09765 5.33465C7.70095 5.33761 8.30839 5.41627 8.87561 5.5736C10.2307 4.65564 10.8257 4.84609 10.8257 4.84609C11.2119 5.8238 10.9688 6.54598 10.8955 6.72461C11.3509 7.22144 11.626 7.85491 11.626 8.62973C11.626 11.3558 9.96569 11.9562 8.38528 12.1318C8.63961 12.3519 8.87206 12.7836 8.87206 13.4461V15.3938C8.87206 15.5825 8.98562 15.8043 9.34583 15.7345C12.1642 14.7946 14.1953 12.1348 14.1953 8.99999C14.1953 5.08032 11.0173 1.90234 7.09765 1.90234Z"
                      fill="#111827"
                    />
                  </g>
                  <defs>
                    <clipPath id="clip0_2_86">
                      <rect width="14.1953" height="18" fill="white" />
                    </clipPath>
                  </defs>
                </svg>
