<svg width="14.08" height="18" viewBox="0 0 15 18" fill="none" xmlns="http://www.w3.org/2000/svg">
                  <g clip-path="url(#clip0_2_79)">
                    <path
                      d="M13.7965 9.15641C13.7965 8.6582 13.752 8.17798 13.6683 7.71732H7.03906V10.4399H10.8276C10.6642 11.3197 10.1683 12.0651 9.42295 12.5649V14.3309H11.6973C13.0285 13.1053 13.7965 11.3002 13.7965 9.15719V9.15641Z"
                      fill="#4285F4"
                    />
                    <path
                      d="M7.03904 16.0391C8.93958 16.0391 10.5328 15.4087 11.6973 14.334L9.42293 12.5672C8.79254 12.9896 7.98618 13.2399 7.03904 13.2399C5.20576 13.2399 3.65404 12.001 3.1003 10.3374H0.748474V12.1613C1.33432 13.3274 2.23288 14.3076 3.34376 14.9924C4.45464 15.6772 5.73406 16.0396 7.03904 16.0391Z"
                      fill="#34A853"
                    />
                    <path
                      d="M3.10031 10.3374C2.9554 9.90636 2.88092 9.45476 2.87975 9C2.87975 8.5362 2.95953 8.08492 3.10031 7.66258V5.83868H0.748486C0.255796 6.81964 -0.000531573 7.90227 8.27665e-07 9C8.27665e-07 10.1356 0.272177 11.211 0.748486 12.1613L3.10031 10.3374Z"
                      fill="#FBBC05"
                    />
                    <path
                      d="M7.03904 4.76092C8.07221 4.76092 9.00059 5.116 9.72952 5.81286L11.7489 3.795C10.5296 2.6578 8.93645 1.96094 7.03904 1.96094C5.73406 1.96042 4.45464 2.3228 3.34376 3.00759C2.23288 3.69237 1.33432 4.67258 0.748474 5.83867L3.1003 7.66257C3.65404 5.99901 5.20576 4.76092 7.03904 4.76092Z"
                      fill="#EA4335"
                    />
                  </g>
                  <defs>
                    <clipPath id="clip0_2_79">
                      <rect width="14.0781" height="18" fill="white" />
                    </clipPath>
                  </defs>
                </svg>
