<svg width="22" height="22" viewBox="0 0 22 22" fill="none" xmlns="http://www.w3.org/2000/svg">
<path d="M17.4167 10.0834H4.58333C3.57081 10.0834 2.75 10.9042 2.75 11.9167V18.3334C2.75 19.3459 3.57081 20.1667 4.58333 20.1667H17.4167C18.4292 20.1667 19.25 19.3459 19.25 18.3334V11.9167C19.25 10.9042 18.4292 10.0834 17.4167 10.0834Z" stroke="#5046E5" stroke-width="1.83333" stroke-linecap="round" stroke-linejoin="round"/>
<path d="M6.41669 10.0834V6.41671C6.41669 5.20113 6.89957 4.03534 7.75911 3.1758C8.61866 2.31626 9.78444 1.83337 11 1.83337C12.2156 1.83337 13.3814 2.31626 14.2409 3.1758C15.1005 4.03534 15.5834 5.20113 15.5834 6.41671V10.0834" stroke="#5046E5" stroke-width="1.83333" stroke-linecap="round" stroke-linejoin="round"/>
</svg>
